<?xml version="1.0" standalone="no"?>
<!DOCTYPE svg PUBLIC "-//W3C//DTD SVG 20010904//EN"
 "http://www.w3.org/TR/2001/REC-SVG-20010904/DTD/svg10.dtd">
<svg version="1.0" xmlns="http://www.w3.org/2000/svg"
 width="717.000000pt" height="717.000000pt" viewBox="0 0 717.000000 717.000000"
 preserveAspectRatio="xMidYMid meet">
<metadata>
Created by potrace 1.11, written by Peter Selinger 2001-2013
</metadata>
<g transform="translate(0.000000,717.000000) scale(0.100000,-0.100000)"
fill="#000000" stroke="none">
<path d="M0 4300 l0 -2870 1010 0 1010 0 0 -380 0 -380 55 0 55 0 0 380 0 380
255 0 255 0 0 -153 c0 -85 3 -256 7 -380 l6 -227 49 0 48 0 0 308 c0 287 2
310 21 352 11 25 32 57 46 73 l27 27 172 0 173 0 -15 -35 c-27 -65 -21 -75 40
-75 51 0 54 2 59 28 3 15 15 40 27 55 l21 27 185 0 185 0 19 -42 c13 -29 20
-66 20 -114 l0 -71 -147 -6 c-161 -7 -241 -23 -309 -63 -184 -108 -179 -353
10 -452 45 -24 62 -27 151 -27 87 0 107 3 156 26 31 15 74 43 96 63 43 38 53
38 53 -3 0 -64 8 -71 71 -71 33 0 59 2 59 4 0 3 -5 17 -12 33 -8 18 -14 139
-18 353 -4 179 -11 335 -15 348 l-7 22 146 0 146 0 0 -380 0 -380 49 0 48 0 7
61 c3 34 6 205 6 380 l0 319 135 0 135 0 0 -380 0 -380 49 0 48 0 7 61 c3 34
6 205 6 380 l0 319 130 0 c126 0 130 -1 120 -19 -18 -34 -11 -113 14 -167 28
-61 87 -102 191 -133 39 -11 110 -32 159 -46 69 -21 97 -35 130 -65 39 -37 41
-41 41 -100 0 -58 -2 -63 -37 -95 -86 -80 -253 -85 -361 -12 -30 21 -67 84
-67 117 0 18 -6 20 -55 20 -49 0 -55 -2 -55 -21 0 -87 82 -189 185 -229 86
-34 253 -35 339 -1 144 57 205 199 141 328 -40 80 -108 118 -295 168 -187 49
-238 90 -227 182 8 73 7 73 208 73 l179 0 20 -32 c11 -18 22 -45 25 -60 6 -27
10 -28 62 -28 l55 0 -6 30 c-3 17 -9 43 -12 60 l-6 30 846 0 846 0 0 2870 0
2870 -3585 0 -3585 0 0 -2870z m1836 2116 c199 -43 333 -129 423 -271 111
-175 151 -365 151 -715 l0 -180 -215 0 -215 0 0 200 c0 404 -36 528 -173 594
-93 46 -304 51 -402 10 -100 -41 -168 -134 -201 -274 -16 -68 -18 -157 -21
-905 -5 -892 -1 -998 43 -1136 56 -178 160 -244 379 -242 161 1 251 46 308
152 48 87 58 160 64 459 l6 272 215 0 214 0 -5 -242 c-6 -331 -32 -467 -123
-647 -110 -222 -278 -323 -578 -351 -191 -18 -432 17 -559 82 -65 33 -140 92
-191 150 -94 107 -181 322 -217 539 -17 101 -25 1474 -9 1644 51 559 251 813
692 875 89 12 329 4 414 -14z m2089 -1 c99 -21 215 -65 275 -105 115 -77 216
-211 271 -361 81 -222 93 -402 86 -1299 -4 -534 -8 -673 -21 -750 -57 -343
-185 -554 -404 -668 -152 -79 -362 -112 -583 -92 -447 41 -662 259 -751 760
-19 109 -19 1681 0 1790 58 330 173 526 373 639 74 41 180 77 271 90 40 6 84
13 98 15 54 10 309 -3 385 -19z m1995 -5 c250 -61 418 -226 499 -490 24 -77
46 -183 56 -262 l6 -57 -38 -10 c-21 -6 -105 -28 -188 -51 -82 -22 -153 -40
-156 -40 -3 0 -9 36 -13 79 -12 142 -64 311 -120 384 -87 114 -281 157 -454
101 -59 -19 -134 -80 -159 -128 -61 -117 -56 -322 11 -454 39 -76 101 -138
436 -432 324 -285 423 -381 501 -485 175 -235 238 -428 226 -702 -8 -197 -45
-311 -140 -440 -155 -208 -429 -315 -730 -284 -131 13 -203 32 -302 80 -263
126 -413 393 -459 818 -3 33 0 43 12 47 10 3 95 26 191 51 96 26 180 49 187
52 10 4 14 -3 14 -22 0 -55 31 -236 54 -312 68 -226 159 -324 329 -353 76 -14
185 -1 251 29 143 65 208 265 161 492 -19 91 -44 146 -99 223 -68 94 -156 178
-512 493 -380 336 -432 392 -499 536 -44 95 -62 169 -75 305 -17 186 7 356 71
486 98 200 281 326 534 366 94 14 307 4 405 -20z m-2190 -5395 c0 -106 -9
-131 -62 -181 -54 -51 -114 -77 -196 -82 -136 -9 -212 45 -220 156 -3 50 0 62
25 97 32 44 98 81 165 94 24 5 98 9 166 10 l122 1 0 -95z"/>
<path d="M3583 6080 c-80 -9 -172 -46 -216 -88 -38 -36 -74 -107 -100 -200
-21 -76 -22 -92 -25 -932 -2 -563 0 -886 7 -947 14 -119 53 -241 94 -295 71
-93 242 -143 407 -120 196 28 278 113 328 342 15 66 17 176 17 945 0 922 -1
949 -48 1075 -30 82 -72 136 -130 170 -79 45 -202 63 -334 50z"/>
</g>
</svg>
